<?xml version="1.0" standalone="no"?>
<!DOCTYPE svg PUBLIC "-//W3C//DTD SVG 20010904//EN"
 "http://www.w3.org/TR/2001/REC-SVG-20010904/DTD/svg10.dtd">
<svg version="1.0" xmlns="http://www.w3.org/2000/svg"
 width="498.000000pt" height="498.000000pt" viewBox="0 0 498.000000 498.000000"
 preserveAspectRatio="xMidYMid meet">

<g transform="translate(0.000000,498.000000) scale(0.100000,-0.100000)"
fill="#000000" stroke="none">
<path d="M2685 3614 c-38 -8 -112 -35 -164 -61 -77 -37 -110 -61 -176 -127
-49 -48 -96 -106 -116 -143 -26 -47 -39 -63 -56 -63 -53 0 -112 -39 -139 -92
-8 -15 -19 -74 -26 -131 -10 -96 -9 -106 10 -150 21 -46 69 -87 104 -87 11 0
21 -13 27 -37 22 -79 53 -73 -345 -73 l-356 0 -29 -29 -29 -29 0 -402 c0 -447
-1 -440 69 -460 20 -5 130 -10 245 -10 l209 0 -6 -76 c-3 -42 -9 -79 -12 -82
-4 -4 -138 -10 -298 -13 -161 -4 -295 -7 -299 -8 -14 -2 -8 -28 11 -53 55 -69
299 -144 597 -182 318 -41 836 -46 1134 -12 363 43 610 113 681 194 41 46 29
55 -71 56 -62 1 -79 4 -75 14 27 71 9 207 -45 335 -34 82 -125 226 -187 297
-24 27 -43 60 -47 82 -4 21 -18 51 -33 68 l-25 31 59 62 c32 34 76 90 97 125
30 49 43 62 62 62 40 0 100 36 124 75 25 40 47 207 36 268 -8 45 -63 105 -102
113 -26 5 -32 14 -56 84 -116 334 -437 523 -773 454z m307 -41 c134 -39 283
-148 358 -261 43 -65 37 -70 -21 -18 -61 55 -133 97 -225 132 -226 85 -522 87
-684 4 -64 -33 -58 -17 12 33 105 74 195 112 313 130 50 8 192 -3 247 -20z
m-57 -132 c226 -47 390 -148 487 -300 44 -70 33 -81 -13 -12 -93 139 -276 236
-520 276 -252 41 -470 -2 -593 -115 -25 -24 -46 -38 -46 -33 0 6 23 31 50 57
59 55 170 111 261 130 94 21 267 19 374 -3z m-91 -140 c26 -5 18 -9 -50 -24
-102 -24 -225 -83 -291 -142 -54 -48 -131 -155 -203 -285 l-42 -75 6 105 c14
247 84 349 276 404 30 8 69 17 85 19 48 6 187 5 219 -2z m-669 -128 c-28 -64
-46 -167 -46 -270 -1 -62 -5 -113 -9 -113 -19 0 -70 53 -80 84 -13 41 4 206
27 249 24 48 128 95 108 50z m1369 -154 c22 -19 38 -43 42 -64 9 -47 -14 -204
-34 -240 -16 -27 -87 -73 -98 -63 -2 3 5 40 17 84 15 57 22 112 23 197 0 64 4
117 8 117 4 0 23 -14 42 -31z m-222 -56 c30 -34 31 -79 5 -135 -28 -63 -63
-87 -105 -72 -38 13 -56 55 -47 112 13 85 104 144 147 95z m-178 -279 c22 -21
20 -50 -4 -74 -23 -23 -41 -25 -58 -8 -18 18 -14 56 8 78 24 24 34 25 54 4z
m-482 -81 c17 -15 18 -41 18 -414 0 -348 -2 -400 -16 -413 -13 -14 -49 -16
-243 -16 l-228 0 -7 113 c-9 152 -16 195 -33 212 -10 11 -39 15 -103 15 -112
0 -115 -4 -124 -150 -4 -58 -9 -124 -13 -147 l-5 -43 -226 0 c-196 0 -228 2
-244 17 -17 15 -18 41 -18 410 0 380 1 394 20 413 20 20 33 20 612 20 536 0
593 -2 610 -17z m579 -285 l23 -33 -27 24 c-15 14 -27 28 -27 33 0 15 8 8 31
-24z m-186 -17 c-80 -38 -149 -53 -248 -55 -64 -1 -82 -5 -82 -16 0 -23 114
-25 212 -5 45 10 117 35 160 56 l78 38 54 -52 c90 -88 265 -327 250 -342 -2
-1 -26 1 -54 5 -28 5 -81 4 -119 -1 -38 -5 -70 -8 -71 -7 -2 2 -10 41 -19 87
-10 46 -23 98 -31 115 l-13 31 -1 -30 c0 -16 8 -86 19 -155 28 -178 29 -170
-27 -170 -76 0 -93 8 -93 42 0 19 -10 40 -29 59 l-29 29 -151 0 -151 0 0 189
0 189 43 -10 c50 -12 200 -3 277 16 84 21 91 17 25 -13z m-920 -243 c4 -12 35
-435 35 -480 0 -16 -12 -18 -121 -18 l-121 0 6 38 c3 20 10 125 16 232 6 107
13 205 16 218 4 21 9 22 85 22 55 0 81 -4 84 -12z m885 -178 c24 -24 28 -101
6 -119 -11 -9 -20 -5 -44 19 -17 16 -40 30 -52 30 -29 0 -70 -44 -70 -75 0
-27 40 -75 62 -75 10 0 12 -12 10 -40 l-4 -40 -73 0 -73 0 -4 65 c-3 57 -8 69
-36 98 -29 30 -32 39 -32 95 l0 62 145 0 c132 0 147 -2 165 -20z m454 6 c37
-16 58 -63 76 -170 9 -56 -1 -151 -18 -168 -8 -8 -93 9 -105 21 -4 4 -3 21 3
37 l10 29 -27 -33 -28 -33 -135 3 -135 3 -3 37 c-2 20 4 51 13 67 8 17 12 31
7 31 -12 0 -52 -74 -52 -97 0 -10 -5 -24 -12 -31 -17 -17 -83 -15 -98 3 -33
39 48 153 125 174 83 23 194 7 288 -40 20 -11 37 -15 37 -9 0 14 -87 68 -132
82 -30 9 -37 16 -43 46 -7 37 -1 47 30 55 45 11 167 6 199 -7z m-520 -109 c11
-8 17 -23 14 -38 -2 -20 -8 -24 -38 -24 -30 0 -36 4 -38 24 -4 22 18 51 38 51
3 0 14 -6 24 -13z m-237 -51 c22 -20 27 -36 31 -85 l4 -61 -84 0 c-52 0 -89 5
-96 12 -7 7 -12 38 -12 70 0 56 1 58 28 59 22 0 54 9 100 28 2 0 15 -10 29
-23z m-396 -44 c11 -24 15 -54 12 -84 -5 -44 -7 -48 -32 -48 -15 0 -32 -5 -37
-10 -8 -8 -15 -6 -24 5 -7 8 -18 15 -25 15 -7 0 -15 10 -19 23 -7 25 -8 131
-2 138 2 2 28 2 58 1 50 -4 54 -6 69 -40z m201 13 c-4 -25 -6 -26 -80 -23 -65
3 -77 6 -90 26 l-14 22 94 0 95 0 -5 -25z m-46 -65 c39 0 46 -3 55 -27 5 -16
17 -34 26 -40 14 -11 -3 -13 -91 -13 l-108 0 6 31 c3 17 6 38 6 47 0 11 7 13
31 8 17 -3 51 -6 75 -6z m44 -134 c0 -3 -4 -8 -10 -11 -5 -3 -10 -1 -10 4 0 6
5 11 10 11 6 0 10 -2 10 -4z m270 -6 c0 -5 -4 -10 -10 -10 -5 0 -10 5 -10 10
0 6 5 10 10 10 6 0 10 -4 10 -10z m360 0 c0 -5 -2 -10 -4 -10 -3 0 -8 5 -11
10 -3 6 -1 10 4 10 6 0 11 -4 11 -10z m-1270 -9 c0 -17 -18 -21 -24 -6 -3 9 0
15 9 15 8 0 15 -4 15 -9z m1213 -94 c-3 -5 -10 -4 -15 1 -6 6 -7 16 -3 22 6 9
9 9 16 -1 4 -7 5 -17 2 -22z m-754 -16 c-15 -5 -22 6 -14 19 6 9 10 9 16 -1 5
-8 4 -15 -2 -18z"/>
<path d="M2044 2428 c-4 -6 -3 -8 4 -4 5 3 13 0 15 -6 3 -8 6 -6 6 5 1 19 -14
23 -25 5z"/>
<path d="M1970 2345 c0 -51 3 -65 15 -65 12 0 15 14 15 65 0 51 -3 65 -15 65
-12 0 -15 -14 -15 -65z"/>
<path d="M1895 2219 c-4 -6 1 -17 11 -25 18 -14 18 -14 0 -7 -13 4 -17 3 -12
-5 4 -7 16 -12 26 -12 14 0 18 7 18 30 -1 22 -6 30 -19 30 -10 0 -21 -5 -24
-11z"/>
<path d="M1950 2200 c0 -16 5 -30 10 -30 6 0 10 5 10 12 0 9 3 9 12 0 19 -19
28 -14 28 18 0 17 -4 30 -10 30 -5 0 -10 -5 -10 -12 0 -9 -3 -9 -12 0 -19 19
-28 14 -28 -18z"/>
<path d="M2030 2211 c-16 -31 -12 -38 19 -38 27 0 28 2 19 29 -12 33 -23 36
-38 9z"/>
<path d="M2090 2200 c0 -30 0 -30 25 -14 30 19 28 38 -3 42 -19 3 -22 -1 -22
-28z"/>
<path d="M2150 2200 c0 -30 0 -30 25 -14 30 19 28 38 -3 42 -19 3 -22 -1 -22
-28z"/>
<path d="M2040 2012 c-50 -16 -65 -67 -30 -102 41 -41 100 -13 100 47 0 40
-34 67 -70 55z m35 -38 c18 -18 16 -33 -7 -47 -35 -22 -66 21 -36 51 16 16 23
15 43 -4z"/>
</g>
</svg>
